<svg width="32" height="32" viewBox="0 0 32 32" fill="none" xmlns="http://www.w3.org/2000/svg">
<rect x="7" y="7" width="17" height="17" rx="8.5" />
<rect x="21" y="7.61816" width="5.85209" height="1.78173" rx="0.890863" transform="rotate(-52.1127 21 7.61816)" />
<rect x="25" y="11.709" width="5.85209" height="1.78173" rx="0.890863" transform="rotate(-16.9843 25 11.709)" />
<rect x="24.5718" y="18" width="5.85209" height="1.78173" rx="0.890863" transform="rotate(18.7127 24.5718 18)" />
<rect x="22.4492" y="23" width="5.85209" height="1.78173" rx="0.890863" transform="rotate(54.4227 22.4492 23)" />
<rect x="16.8223" y="26.0127" width="5.85209" height="1.78173" rx="0.890863" transform="rotate(90.3959 16.8223 26.0127)" />
<rect x="10.8413" y="24.0312" width="5.85209" height="1.78173" rx="0.890863" transform="rotate(125.382 10.8413 24.0312)" />
<rect x="7.11475" y="19.6885" width="5.85209" height="1.78173" rx="0.890863" transform="rotate(161.336 7.11475 19.6885)" />
<rect x="5.57812" y="13.4678" width="5.85209" height="1.78173" rx="0.890863" transform="rotate(-162.406 5.57812 13.4678)" />
<rect x="8.87598" y="8.68164" width="5.85209" height="1.78173" rx="0.890863" transform="rotate(-122.442 8.87598 8.68164)" />
<rect x="16.8223" y="0.0126953" width="5.85209" height="1.78173" rx="0.890863" transform="rotate(90.3959 16.8223 0.0126953)" />
</svg>
